<svg xmlns="http://www.w3.org/2000/svg" viewBox="0 0 32 32" width="32" height="32">
  <!-- 背景 -->
  <rect width="32" height="32" fill="#2563eb" rx="4"/>
  
  <!-- QR码样式图标 -->
  <!-- 左上角定位点 -->
  <rect x="4" y="4" width="6" height="6" fill="white"/>
  <rect x="5" y="5" width="4" height="4" fill="#2563eb"/>
  <rect x="6" y="6" width="2" height="2" fill="white"/>
  
  <!-- 右上角定位点 -->
  <rect x="22" y="4" width="6" height="6" fill="white"/>
  <rect x="23" y="5" width="4" height="4" fill="#2563eb"/>
  <rect x="24" y="6" width="2" height="2" fill="white"/>
  
  <!-- 左下角定位点 -->
  <rect x="4" y="22" width="6" height="6" fill="white"/>
  <rect x="5" y="23" width="4" height="4" fill="#2563eb"/>
  <rect x="6" y="24" width="2" height="2" fill="white"/>
  
  <!-- 中间数据点 -->
  <rect x="12" y="6" width="2" height="2" fill="white"/>
  <rect x="16" y="6" width="2" height="2" fill="white"/>
  <rect x="6" y="12" width="2" height="2" fill="white"/>
  <rect x="12" y="12" width="2" height="2" fill="white"/>
  <rect x="18" y="12" width="2" height="2" fill="white"/>
  <rect x="24" y="12" width="2" height="2" fill="white"/>
  <rect x="12" y="16" width="2" height="2" fill="white"/>
  <rect x="20" y="16" width="2" height="2" fill="white"/>
  <rect x="14" y="20" width="2" height="2" fill="white"/>
  <rect x="18" y="24" width="2" height="2" fill="white"/>
  <rect x="24" y="24" width="2" height="2" fill="white"/>
</svg>